<svg width="38" height="38" viewBox="0 0 38 38" fill="none" xmlns="http://www.w3.org/2000/svg">
<path d="M4.74999 20.5834H6.33332V31.6667C6.33332 33.4131 7.75357 34.8334 9.49999 34.8334H28.5C30.2464 34.8334 31.6667 33.4131 31.6667 31.6667V20.5834H33.25C33.5631 20.5833 33.8691 20.4904 34.1295 20.3164C34.3898 20.1424 34.5927 19.8952 34.7125 19.6059C34.8323 19.3166 34.8636 18.9983 34.8026 18.6912C34.7415 18.3841 34.5908 18.102 34.3694 17.8806L20.1194 3.63062C19.9725 3.48345 19.798 3.3667 19.6059 3.28704C19.4138 3.20738 19.2079 3.16638 19 3.16638C18.792 3.16638 18.5861 3.20738 18.3941 3.28704C18.202 3.3667 18.0275 3.48345 17.8806 3.63062L3.63057 17.8806C3.40921 18.102 3.25846 18.3841 3.1974 18.6912C3.13633 18.9983 3.16769 19.3166 3.2875 19.6059C3.40731 19.8952 3.6102 20.1424 3.87051 20.3164C4.13083 20.4904 4.43688 20.5833 4.74999 20.5834ZM19 6.98887L28.5 16.4889V23.75L28.5016 31.6667H9.49999V16.4889L19 6.98887Z" fill="white"/>
<path d="M19 28.5C24.8631 28.5 26.7599 22.8966 26.8375 22.6591L23.8291 21.6759C23.8165 21.7123 22.5926 25.3334 19 25.3334C15.4565 25.3334 14.2183 21.8168 14.1692 21.6664L11.1625 22.6591C11.2401 22.8966 13.1369 28.5 19 28.5Z" fill="#187C46"/>
</svg>
