<svg width="106" height="29" viewBox="0 0 106 29" fill="none" xmlns="http://www.w3.org/2000/svg">
<path d="M16.8119 11.7271H13.1023C13.0345 11.2472 12.8962 10.8209 12.6873 10.4483C12.4783 10.07 12.2101 9.74812 11.8827 9.48274C11.5552 9.21736 11.1769 9.0141 10.7477 8.87294C10.3243 8.73178 9.8641 8.6612 9.36722 8.6612C8.46946 8.6612 7.68745 8.88423 7.02118 9.33029C6.35492 9.7707 5.83828 10.4144 5.47127 11.2613C5.10426 12.1026 4.92076 13.1246 4.92076 14.3273C4.92076 15.5638 5.10426 16.6027 5.47127 17.444C5.84393 18.2853 6.36339 18.9205 7.02965 19.3497C7.69592 19.7788 8.46664 19.9933 9.34181 19.9933C9.83304 19.9933 10.2876 19.9284 10.7054 19.7985C11.1289 19.6687 11.5044 19.4795 11.8318 19.2311C12.1593 18.977 12.4303 18.6693 12.6449 18.3079C12.8651 17.9466 13.0176 17.5344 13.1023 17.0714L16.8119 17.0883C16.7159 17.8844 16.4759 18.6523 16.092 19.392C15.7137 20.126 15.2027 20.7838 14.559 21.3654C13.921 21.9413 13.1587 22.3987 12.2722 22.7374C11.3914 23.0706 10.3949 23.2371 9.28253 23.2371C7.73544 23.2371 6.3521 22.8871 5.13249 22.1869C3.91854 21.4868 2.95866 20.4733 2.25288 19.1464C1.55273 17.8195 1.20266 16.2131 1.20266 14.3273C1.20266 12.4358 1.55838 10.8266 2.26982 9.49968C2.98125 8.1728 3.94677 7.16211 5.16637 6.46761C6.38597 5.76747 7.75803 5.4174 9.28253 5.4174C10.2876 5.4174 11.2192 5.55856 12.0775 5.84087C12.9413 6.12319 13.7064 6.53537 14.3727 7.07741C15.0389 7.61381 15.581 8.27161 15.9988 9.0508C16.4223 9.82999 16.6933 10.7221 16.8119 11.7271ZM25.2517 23.2541C23.9361 23.2541 22.7984 22.9746 21.8385 22.4156C20.8843 21.851 20.1474 21.0661 19.628 20.0611C19.1085 19.0504 18.8488 17.8788 18.8488 16.5463C18.8488 15.2024 19.1085 14.028 19.628 13.023C20.1474 12.0123 20.8843 11.2274 21.8385 10.6685C22.7984 10.1038 23.9361 9.82152 25.2517 9.82152C26.5673 9.82152 27.7022 10.1038 28.6564 10.6685C29.6163 11.2274 30.356 12.0123 30.8754 13.023C31.3949 14.028 31.6546 15.2024 31.6546 16.5463C31.6546 17.8788 31.3949 19.0504 30.8754 20.0611C30.356 21.0661 29.6163 21.851 28.6564 22.4156C27.7022 22.9746 26.5673 23.2541 25.2517 23.2541ZM25.2686 20.4592C25.8671 20.4592 26.3668 20.2898 26.7677 19.951C27.1686 19.6066 27.4707 19.1379 27.674 18.5451C27.8829 17.9522 27.9873 17.2775 27.9873 16.5209C27.9873 15.7643 27.8829 15.0895 27.674 14.4967C27.4707 13.9038 27.1686 13.4352 26.7677 13.0907C26.3668 12.7463 25.8671 12.5741 25.2686 12.5741C24.6645 12.5741 24.1563 12.7463 23.7441 13.0907C23.3376 13.4352 23.0299 13.9038 22.821 14.4967C22.6177 15.0895 22.5161 15.7643 22.5161 16.5209C22.5161 17.2775 22.6177 17.9522 22.821 18.5451C23.0299 19.1379 23.3376 19.6066 23.7441 19.951C24.1563 20.2898 24.6645 20.4592 25.2686 20.4592ZM37.6086 5.65454V23H34.0006V5.65454H37.6086ZM44.1068 5.65454V23H40.4988V5.65454H44.1068Z" fill="white"/>
<path d="M46.997 23V9.99091H50.605V23H46.997ZM48.8095 8.31396C48.2731 8.31396 47.8129 8.1361 47.429 7.78038C47.0507 7.41902 46.8615 6.98707 46.8615 6.48455C46.8615 5.98768 47.0507 5.56138 47.429 5.20566C47.8129 4.8443 48.2731 4.66362 48.8095 4.66362C49.3459 4.66362 49.8033 4.8443 50.1816 5.20566C50.5655 5.56138 50.7575 5.98768 50.7575 6.48455C50.7575 6.98707 50.5655 7.41902 50.1816 7.78038C49.8033 8.1361 49.3459 8.31396 48.8095 8.31396ZM57.1032 15.4791V23H53.4952V9.99091H56.9338V12.2861H57.0863C57.3742 11.5295 57.857 10.931 58.5346 10.4906C59.2121 10.0445 60.0337 9.82152 60.9992 9.82152C61.9026 9.82152 62.6902 10.0191 63.3621 10.4144C64.0341 10.8096 64.5563 11.3743 64.929 12.1083C65.3017 12.8366 65.488 13.7062 65.488 14.7169V23H61.88V15.3605C61.8856 14.5644 61.6824 13.9433 61.2702 13.4973C60.858 13.0456 60.2906 12.8197 59.5678 12.8197C59.0822 12.8197 58.6531 12.9242 58.2805 13.1331C57.9135 13.342 57.6255 13.6469 57.4166 14.0478C57.2133 14.443 57.1089 14.9201 57.1032 15.4791ZM79.1556 13.7005L75.8525 13.9038C75.796 13.6215 75.6746 13.3674 75.4883 13.1415C75.302 12.91 75.0564 12.7265 74.7515 12.591C74.4522 12.4499 74.0937 12.3793 73.6758 12.3793C73.1169 12.3793 72.6454 12.4979 72.2614 12.735C71.8775 12.9665 71.6855 13.2771 71.6855 13.6667C71.6855 13.9772 71.8097 14.2398 72.0582 14.4543C72.3066 14.6689 72.7329 14.8411 73.3371 14.971L75.6916 15.4452C76.9563 15.705 77.8993 16.1228 78.5204 16.6987C79.1415 17.2746 79.452 18.0312 79.452 18.9685C79.452 19.8211 79.2007 20.5693 78.6982 21.2129C78.2014 21.8566 77.5182 22.3591 76.6486 22.7205C75.7847 23.0762 74.7882 23.2541 73.6589 23.2541C71.9368 23.2541 70.5647 22.8955 69.5427 22.1785C68.5264 21.4557 67.9307 20.4733 67.7557 19.2311L71.3044 19.0448C71.4117 19.5699 71.6714 19.9708 72.0836 20.2474C72.4958 20.5184 73.0237 20.654 73.6674 20.654C74.2998 20.654 74.8079 20.5326 75.1919 20.2898C75.5815 20.0413 75.7791 19.7223 75.7847 19.3327C75.7791 19.0052 75.6408 18.737 75.3697 18.5281C75.0987 18.3136 74.6809 18.1498 74.1162 18.0369L71.8634 17.588C70.593 17.3339 69.6472 16.8935 69.0261 16.2668C68.4107 15.64 68.1029 14.8411 68.1029 13.8699C68.1029 13.0343 68.3288 12.3144 68.7805 11.7102C69.2378 11.1061 69.8787 10.6402 70.7031 10.3127C71.5331 9.98526 72.5042 9.82152 73.6166 9.82152C75.2596 9.82152 76.5526 10.1688 77.4956 10.8633C78.4441 11.5578 78.9975 12.5035 79.1556 13.7005Z" fill="#09B330"/>
<path d="M91.0938 18.174C90.5196 18.1103 89.9548 17.9797 89.411 17.7848C89.4276 17.3939 89.4375 16.9865 89.4375 16.5625V16.0043C89.9509 16.2495 90.5091 16.4201 91.0938 16.5045V12.4219C91.0938 11.763 91.3555 11.1311 91.8214 10.6652C92.2873 10.1993 92.9192 9.93751 93.5781 9.93751H97.6608C97.5287 9.01975 97.1784 8.14708 96.6393 7.39272C96.1002 6.63835 95.3879 6.02432 94.5624 5.60215C93.7369 5.17998 92.8222 4.96199 91.895 4.96648C90.9678 4.97097 90.0552 5.1978 89.2338 5.62794C89.1028 5.08624 88.887 4.56863 88.5945 4.09426C89.6682 3.55834 90.8554 3.2896 92.0552 3.31089C93.255 3.33217 94.432 3.64286 95.486 4.21653C96.54 4.7902 97.4399 5.6099 98.1092 6.60593C98.7785 7.60196 99.1974 8.74487 99.3303 9.93751H101.859C102.518 9.93751 103.15 10.1993 103.616 10.6652C104.082 11.1311 104.344 11.763 104.344 12.4219V20.7031C104.344 21.362 104.082 21.9939 103.616 22.4599C103.15 22.9258 102.518 23.1875 101.859 23.1875H93.5781C92.9192 23.1875 92.2873 22.9258 91.8214 22.4599C91.3555 21.9939 91.0938 21.362 91.0938 20.7031V18.174ZM99.3303 11.5938C99.1421 13.2742 98.3883 14.8407 97.1927 16.0364C95.997 17.2321 94.4304 17.9859 92.75 18.174V20.7031C92.75 20.9228 92.8372 21.1334 92.9926 21.2887C93.1479 21.444 93.3585 21.5313 93.5781 21.5313H101.859C102.079 21.5313 102.29 21.444 102.445 21.2887C102.6 21.1334 102.688 20.9228 102.688 20.7031V12.4219C102.688 12.2022 102.6 11.9916 102.445 11.8363C102.29 11.681 102.079 11.5938 101.859 11.5938H99.3303ZM97.6608 11.5938H93.5781C93.3585 11.5938 93.1479 11.681 92.9926 11.8363C92.8372 11.9916 92.75 12.2022 92.75 12.4219V16.5045C93.9888 16.3255 95.1365 15.7505 96.0216 14.8654C96.9067 13.9803 97.4817 12.8326 97.6608 11.5938ZM87.4417 12.5229C87.2678 11.8836 86.9863 11.2426 86.5026 10.7507C87.2844 10.0104 87.7812 8.83113 87.7812 7.45313C87.7812 6.29872 87.5477 5.50538 87.1254 4.87104C86.938 4.59821 86.7214 4.34663 86.4794 4.12076C86.3867 4.03123 86.2928 3.94289 86.1979 3.85576C86.0968 3.76135 86.0041 3.67522 85.8832 3.55432C85.6348 3.30588 85.6066 3.10713 85.6066 3.00279C85.6069 2.94479 85.6164 2.8872 85.6347 2.83219C85.7105 2.66843 85.7306 2.48442 85.6922 2.30815C85.6538 2.13187 85.5588 1.97297 85.4217 1.85562C85.2847 1.73826 85.1131 1.66887 84.933 1.658C84.7529 1.64713 84.5742 1.69537 84.424 1.79538L84.4207 1.79704L84.4157 1.80035L84.4008 1.81029L84.3512 1.84341C84.1027 2.02062 83.8634 2.21022 83.634 2.41151C83.2199 2.77754 82.68 3.31913 82.2974 3.96507C81.9634 4.50058 81.6954 5.07449 81.4991 5.67432C81.3003 6.26891 81.1562 6.91319 81.1562 7.45313C81.1562 8.83113 81.6531 10.0087 82.4349 10.7524C81.9512 11.2426 81.6697 11.8836 81.4958 12.5246C81.1563 13.7701 81.1562 15.3104 81.1562 16.5012V16.5625C81.1562 19.9711 81.7939 21.995 82.516 23.1991C82.8787 23.802 83.2564 24.1912 83.5727 24.4363C83.7413 24.5678 83.9247 24.679 84.1193 24.7676C84.2318 24.8086 84.3494 24.8343 84.4688 24.8438C84.6079 24.8438 84.8182 24.7676 84.8182 24.7676C85.0128 24.679 85.1962 24.5678 85.3648 24.4363C85.6795 24.1912 86.0604 23.802 86.4215 23.1991C87.1436 21.9967 87.7812 19.9711 87.7812 16.5625V16.5029C87.7812 15.3104 87.7812 13.7717 87.4417 12.5229ZM83.6191 11.9101C83.8063 11.7213 84.0563 11.5938 84.4688 11.5938C84.8828 11.5938 85.1312 11.7229 85.3184 11.9084C85.5271 12.1188 85.7076 12.46 85.8434 12.9585C86.1184 13.9705 86.125 15.2988 86.125 16.5625C86.125 19.7789 85.5205 21.4816 85.0004 22.3478C84.8017 22.679 84.6145 22.8927 84.4688 23.0268C84.2605 22.8266 84.0815 22.598 83.9371 22.3478C83.417 21.4799 82.8125 19.7789 82.8125 16.5625C82.8125 15.2988 82.8191 13.9705 83.0941 12.9585C83.2299 12.4616 83.4104 12.1188 83.6191 11.9084V11.9101ZM84.4688 9.93751C83.8311 9.93751 82.8125 9.22863 82.8125 7.45313C82.8125 7.1666 82.8986 6.71279 83.0709 6.19935C83.2278 5.71462 83.4443 5.25121 83.7152 4.81969C83.8593 4.57622 84.0464 4.33938 84.2485 4.12241C84.3628 4.32447 84.5135 4.52819 84.7122 4.72694C84.8331 4.84785 84.9905 4.9936 85.1246 5.11947L85.33 5.3116C85.5039 5.48054 85.6381 5.62794 85.7457 5.79191C85.9445 6.08838 86.125 6.53722 86.125 7.45313C86.125 9.22863 85.1064 9.93751 84.4688 9.93751Z" fill="#09B330"/>
</svg>
